<svg width="47" height="47" viewBox="0 0 47 47" fill="none" xmlns="http://www.w3.org/2000/svg">
<path fill-rule="evenodd" clip-rule="evenodd" d="M14.8794 8.78704C15.4023 6.22163 17.6857 4.40625 20.3001 4.40625H26.6999C29.3143 4.40625 31.5958 6.22163 32.1206 8.78704C32.1785 9.06954 32.3297 9.32435 32.5499 9.51049C32.7701 9.69662 33.0466 9.80325 33.3348 9.81321H33.3994C36.1469 9.93463 38.258 10.2715 40.0205 11.4288C41.1309 12.1573 42.0866 13.0934 42.8307 14.1881C43.757 15.5472 44.1644 17.11 44.3602 18.9978C44.5521 20.8445 44.5521 23.1573 44.5521 26.087V26.2534C44.5521 29.1831 44.5521 31.4978 44.3602 33.3426C44.1644 35.2304 43.757 36.7932 42.8307 38.1542C42.0825 39.2481 41.1279 40.1854 40.0205 40.9135C38.6438 41.8163 37.0634 42.2158 35.1482 42.4058C33.2721 42.5938 30.9201 42.5938 27.9317 42.5938H19.0683C16.0799 42.5938 13.7279 42.5938 11.8519 42.4058C9.9366 42.2158 8.35623 41.8183 6.97952 40.9135C5.87197 40.1848 4.91737 39.2468 4.16931 38.1523C3.24302 36.7932 2.83569 35.2304 2.63985 33.3426C2.44794 31.4978 2.44794 29.1831 2.44794 26.2534V26.087C2.44794 23.1573 2.44794 20.8445 2.63985 18.9978C2.83569 17.11 3.24302 15.5472 4.16931 14.1881C4.91737 13.0936 5.87197 12.1556 6.97952 11.4269C8.74202 10.2715 10.8531 9.93463 13.6006 9.81517L13.6339 9.81321H13.6653C13.9535 9.80325 14.2299 9.69662 14.4501 9.51049C14.6704 9.32435 14.8216 9.06954 14.8794 8.78704ZM20.3001 7.34375C19.0468 7.34375 17.9951 8.21129 17.7582 9.37258C17.3763 11.2526 15.7078 12.7331 13.7005 12.7507C11.0607 12.8682 9.64677 13.1913 8.58927 13.8846C7.80485 14.4014 7.12843 15.0659 6.59765 15.841C6.05715 16.6341 5.73206 17.6505 5.55973 19.3013C5.3874 20.9777 5.38544 23.1397 5.38544 26.1712C5.38544 29.2027 5.38544 31.3627 5.56169 33.039C5.73206 34.6899 6.05715 35.7063 6.5996 36.5014C7.12444 37.273 7.80006 37.9388 8.59123 38.4578C9.40785 38.9924 10.4536 39.3155 12.1436 39.4839C13.8552 39.6543 16.0603 39.6562 19.1486 39.6562H27.8514C30.9378 39.6562 33.1429 39.6563 34.8564 39.4839C36.5464 39.3155 37.5922 38.9943 38.4088 38.4578C39.2 37.9388 39.8776 37.273 40.4024 36.4994C40.9429 35.7063 41.268 34.6899 41.4403 33.039C41.6126 31.3627 41.6146 29.2007 41.6146 26.1712C41.6146 23.1416 41.6146 20.9777 41.4384 19.3013C41.268 17.6505 40.9429 16.6341 40.4004 15.841C39.8699 15.0652 39.1934 14.4001 38.4088 13.8826C37.3552 13.1913 35.9413 12.8682 33.2976 12.7507C31.2922 12.7311 29.6237 11.2545 29.2419 9.37258C29.1165 8.79345 28.7952 8.27531 28.3321 7.90568C27.8689 7.53604 27.2924 7.33756 26.6999 7.34375H20.3001ZM23.5 21.0521C22.3314 21.0521 21.2107 21.5163 20.3843 22.3426C19.558 23.169 19.0938 24.2897 19.0938 25.4583C19.0938 26.6269 19.558 27.7477 20.3843 28.574C21.2107 29.4004 22.3314 29.8646 23.5 29.8646C24.6686 29.8646 25.7894 29.4004 26.6157 28.574C27.442 27.7477 27.9063 26.6269 27.9063 25.4583C27.9063 24.2897 27.442 23.169 26.6157 22.3426C25.7894 21.5163 24.6686 21.0521 23.5 21.0521ZM16.1563 25.4583C16.1563 23.5107 16.93 21.6427 18.3072 20.2655C19.6844 18.8883 21.5523 18.1146 23.5 18.1146C25.4477 18.1146 27.3156 18.8883 28.6928 20.2655C30.0701 21.6427 30.8438 23.5107 30.8438 25.4583C30.8438 27.406 30.0701 29.2739 28.6928 30.6511C27.3156 32.0284 25.4477 32.8021 23.5 32.8021C21.5523 32.8021 19.6844 32.0284 18.3072 30.6511C16.93 29.2739 16.1563 27.406 16.1563 25.4583ZM33.7813 19.5833C33.7813 19.1938 33.936 18.8202 34.2115 18.5448C34.4869 18.2693 34.8605 18.1146 35.25 18.1146H37.2084C37.5979 18.1146 37.9715 18.2693 38.2469 18.5448C38.5224 18.8202 38.6771 19.1938 38.6771 19.5833C38.6771 19.9729 38.5224 20.3465 38.2469 20.6219C37.9715 20.8973 37.5979 21.0521 37.2084 21.0521H35.25C34.8605 21.0521 34.4869 20.8973 34.2115 20.6219C33.936 20.3465 33.7813 19.9729 33.7813 19.5833Z" fill="white"/>
</svg>
