<svg width="22" height="24" viewBox="0 0 22 24" fill="none" xmlns="http://www.w3.org/2000/svg">
<path fill-rule="evenodd" clip-rule="evenodd" d="M9.856 0.354156H12.144C14.1352 0.354156 15.7125 0.354156 16.9464 0.519906C18.2161 0.691073 19.2442 1.05074 20.0556 1.86107C20.8659 2.67249 21.2256 3.70057 21.3968 4.97024C21.5625 6.20524 21.5625 7.78149 21.5625 9.77266V14.2273C21.5625 16.2185 21.5625 17.7958 21.3968 19.0297C21.2256 20.2994 20.8659 21.3275 20.0556 22.1389C19.2442 22.9492 18.2161 23.3089 16.9464 23.4801C15.7114 23.6458 14.1352 23.6458 12.144 23.6458H9.856C7.86483 23.6458 6.2875 23.6458 5.05358 23.4801C3.78392 23.3089 2.75583 22.9492 1.94442 22.1389C1.13408 21.3275 0.774417 20.2994 0.60325 19.0297C0.4375 17.7947 0.4375 16.2185 0.4375 14.2273V9.77266C0.4375 7.78149 0.4375 6.20416 0.60325 4.97024C0.774417 3.70057 1.13408 2.67249 1.94442 1.86107C2.75583 1.05074 3.78392 0.691073 5.05358 0.519906C6.28858 0.354156 7.86483 0.354156 9.856 0.354156ZM5.26917 2.13082C4.17933 2.27707 3.551 2.55224 3.09167 3.01049C2.6345 3.46874 2.35933 4.09707 2.21308 5.18691C2.06358 6.30057 2.06142 7.76741 2.06142 9.83332V14.1667C2.06142 16.2326 2.06358 17.7005 2.21308 18.8142C2.35933 19.9029 2.6345 20.5312 3.09275 20.9895C3.551 21.4477 4.17933 21.7229 5.26917 21.8692C6.38283 22.0187 7.84967 22.0208 9.91558 22.0208H12.0822C14.1482 22.0208 15.6161 22.0187 16.7297 21.8692C17.8185 21.7229 18.4468 21.4477 18.9051 20.9895C19.3633 20.5312 19.6385 19.9029 19.7847 18.8131C19.9342 17.7005 19.9364 16.2326 19.9364 14.1667V9.83332C19.9364 7.76741 19.9342 6.30057 19.7847 5.18582C19.6385 4.09707 19.3633 3.46874 18.9051 3.01049C18.4468 2.55224 17.8185 2.27707 16.7287 2.13082C15.6161 1.98132 14.1482 1.97916 12.0822 1.97916H9.91558C7.84967 1.97916 6.38392 1.98132 5.26917 2.13082ZM5.85417 9.83332C5.85417 9.61783 5.93977 9.41117 6.09214 9.2588C6.24452 9.10643 6.45118 9.02082 6.66667 9.02082H15.3333C15.5488 9.02082 15.7555 9.10643 15.9079 9.2588C16.0602 9.41117 16.1458 9.61783 16.1458 9.83332C16.1458 10.0488 16.0602 10.2555 15.9079 10.4078C15.7555 10.5602 15.5488 10.6458 15.3333 10.6458H6.66667C6.45118 10.6458 6.24452 10.5602 6.09214 10.4078C5.93977 10.2555 5.85417 10.0488 5.85417 9.83332ZM5.85417 14.1667C5.85417 13.9512 5.93977 13.7445 6.09214 13.5921C6.24452 13.4398 6.45118 13.3542 6.66667 13.3542H12.0833C12.2988 13.3542 12.5055 13.4398 12.6579 13.5921C12.8102 13.7445 12.8958 13.9512 12.8958 14.1667C12.8958 14.3821 12.8102 14.5888 12.6579 14.7412C12.5055 14.8936 12.2988 14.9792 12.0833 14.9792H6.66667C6.45118 14.9792 6.24452 14.8936 6.09214 14.7412C5.93977 14.5888 5.85417 14.3821 5.85417 14.1667Z" fill="black"/>
</svg>
