<svg width="30" height="30" viewBox="0 0 30 30" fill="none" xmlns="http://www.w3.org/2000/svg">
<path d="M22.5 10C22.5 10.663 22.2366 11.2989 21.7678 11.7678C21.2989 12.2366 20.663 12.5 20 12.5C19.337 12.5 18.7011 12.2366 18.2322 11.7678C17.7634 11.2989 17.5 10.663 17.5 10C17.5 9.33696 17.7634 8.70107 18.2322 8.23223C18.7011 7.76339 19.337 7.5 20 7.5C20.663 7.5 21.2989 7.76339 21.7678 8.23223C22.2366 8.70107 22.5 9.33696 22.5 10Z" fill="#9331DE"/>
<path fill-rule="evenodd" clip-rule="evenodd" d="M14.9288 1.56253H15.0712C17.9575 1.56253 20.2188 1.56253 21.9837 1.80003C23.7887 2.04253 25.2138 2.55003 26.3325 3.66753C27.4513 4.78628 27.9575 6.21128 28.2 8.01753C28.4375 9.78128 28.4375 12.0425 28.4375 14.9288V15.0388C28.4375 17.425 28.4375 19.3775 28.3075 20.9675C28.1775 22.5675 27.9112 23.9013 27.3137 25.0113C27.0521 25.4996 26.725 25.94 26.3325 26.3325C25.2138 27.4513 23.7887 27.9575 21.9825 28.2C20.2188 28.4375 17.9575 28.4375 15.0712 28.4375H14.9288C12.0425 28.4375 9.78125 28.4375 8.01625 28.2C6.21125 27.9575 4.78625 27.45 3.6675 26.3325C2.67625 25.3413 2.16375 24.1075 1.8925 22.575C1.62375 21.0713 1.575 19.2 1.565 16.8775C1.56333 16.2859 1.5625 15.66 1.5625 15V14.9275C1.5625 12.0413 1.5625 9.78003 1.8 8.01503C2.0425 6.21003 2.55 4.78503 3.6675 3.66628C4.78625 2.54753 6.21125 2.04128 8.0175 1.79878C9.78125 1.56128 12.0425 1.56128 14.9288 1.56128M8.26625 3.65628C6.66875 3.87128 5.705 4.28128 4.99375 4.99253C4.28125 5.70503 3.8725 6.66753 3.6575 8.26628C3.44 9.89128 3.4375 12.0263 3.4375 14.9988C3.4375 15.6596 3.43833 16.2825 3.44 16.8675C3.45 19.21 3.5025 20.925 3.7375 22.2463C3.9675 23.54 4.36 24.3713 4.99375 25.005C5.70625 25.7175 6.66875 26.1263 8.2675 26.3413C9.8925 26.5588 12.0275 26.5613 15 26.5613C17.9725 26.5613 20.1075 26.5588 21.7325 26.3413C23.3312 26.1263 24.295 25.7163 25.0075 25.005C25.27 24.7425 25.4838 24.4525 25.6625 24.1213C26.0775 23.3513 26.3162 22.3213 26.4387 20.815C26.5612 19.3088 26.5625 17.4313 26.5625 14.9988C26.5625 12.0263 26.56 9.89128 26.3425 8.26628C26.1275 6.66753 25.7175 5.70378 25.0062 4.99128C24.2937 4.28003 23.3312 3.87128 21.7325 3.65628C20.1075 3.43878 17.9725 3.43628 15 3.43628C12.0275 3.43628 9.89125 3.43878 8.26625 3.65628Z" fill="#9331DE"/>
<path opacity="0.4" d="M25.7588 23.9326L22.2213 20.7488C21.5903 20.1808 20.7853 19.8437 19.9379 19.7926C19.0905 19.7415 18.2509 19.9795 17.5562 20.4676L17.1825 20.7301C16.701 21.0684 16.1157 21.2261 15.5294 21.1753C14.9432 21.1245 14.3936 20.8686 13.9775 20.4526L8.615 15.0901C8.0992 14.5747 7.40687 14.2746 6.67815 14.2505C5.94944 14.2263 5.23877 14.48 4.69 14.9601L3.4375 16.0551L3.44 16.8676C3.45 19.2113 3.5025 20.9263 3.7375 22.2476C3.96875 23.5413 4.36 24.3726 4.99375 25.0063C5.70625 25.7188 6.66875 26.1276 8.2675 26.3426C9.8925 26.5601 12.0275 26.5626 15 26.5626C17.9725 26.5626 20.1087 26.5601 21.7337 26.3426C23.3312 26.1276 24.295 25.7176 25.0062 25.0063C25.3182 24.6954 25.5729 24.3319 25.7588 23.9326Z" fill="#9331DE"/>
</svg>
