<svg width="23" height="24" viewBox="0 0 23 24" fill="none" xmlns="http://www.w3.org/2000/svg">
<path d="M14.875 22.625V13.625C14.875 13.3266 14.7565 13.0405 14.5455 12.8295C14.3345 12.6185 14.0484 12.5 13.75 12.5H9.25C8.95163 12.5 8.66548 12.6185 8.45451 12.8295C8.24353 13.0405 8.125 13.3266 8.125 13.625V22.625" stroke="#9331DE" stroke-width="2" stroke-linecap="round" stroke-linejoin="round"/>
<path d="M1.375 10.25C1.37492 9.9227 1.44625 9.59932 1.58401 9.30243C1.72177 9.00553 1.92265 8.74227 2.17263 8.53099L10.0476 1.78212C10.4537 1.43889 10.9683 1.25058 11.5 1.25058C12.0317 1.25058 12.5463 1.43889 12.9524 1.78212L20.8274 8.53099C21.0774 8.74227 21.2782 9.00553 21.416 9.30243C21.5538 9.59932 21.6251 9.9227 21.625 10.25V20.375C21.625 20.9717 21.3879 21.544 20.966 21.966C20.544 22.3879 19.9717 22.625 19.375 22.625H3.625C3.02826 22.625 2.45597 22.3879 2.03401 21.966C1.61205 21.544 1.375 20.9717 1.375 20.375V10.25Z" stroke="#9331DE" stroke-width="2" stroke-linecap="round" stroke-linejoin="round"/>
</svg>
