<svg width="27" height="27" viewBox="0 0 27 27" fill="none" xmlns="http://www.w3.org/2000/svg">
<path d="M17.7188 23.625H20.6719C21.4551 23.625 22.2062 23.3139 22.7601 22.7601C23.3139 22.2062 23.625 21.4551 23.625 20.6719V17.7188M23.625 9.28125V6.32812C23.625 5.54491 23.3139 4.79377 22.7601 4.23995C22.2062 3.68613 21.4551 3.375 20.6719 3.375H17.7188M9.28125 23.625H6.32812C5.54491 23.625 4.79377 23.3139 4.23995 22.7601C3.68613 22.2062 3.375 21.4551 3.375 20.6719V17.7188M3.375 9.28125V6.32812C3.375 5.54491 3.68613 4.79377 4.23995 4.23995C4.79377 3.68613 5.54491 3.375 6.32812 3.375H9.28125" stroke="black" stroke-width="1.375" stroke-linecap="round" stroke-linejoin="round"/>
</svg>
